<svg xmlns="http://www.w3.org/2000/svg" xmlns:xlink="http://www.w3.org/1999/xlink" version="1.1" width="256" height="256" viewBox="0 0 256 256" xml:space="preserve">
<g style="stroke: none; stroke-width: 0; stroke-dasharray: none; stroke-linecap: butt; stroke-linejoin: miter; stroke-miterlimit: 10; fill: none; fill-rule: nonzero; opacity: 1;" transform="translate(1.4065934065934016 1.4065934065934016) scale(2.81 2.81)">
	<path d="M 11.58 54.882 v 31.965 c 0 1.741 1.412 3.153 3.153 3.153 h 60.534 c 1.741 0 3.153 -1.412 3.153 -3.153 V 54.882 C 56.073 47.881 33.792 47.838 11.58 54.882 z" style="stroke: none; stroke-width: 1; stroke-dasharray: none; stroke-linecap: butt; stroke-linejoin: miter; stroke-miterlimit: 10; fill: rgb(184,53,53); fill-rule: nonzero; opacity: 1;" transform=" matrix(1 0 0 1 0 0) " stroke-linecap="round"/>
	<path d="M 78.42 54.882 V 18.345 C 69.386 13.658 63.133 7.61 60.075 0 H 14.733 c -1.741 0 -3.153 1.412 -3.153 3.153 v 51.729 H 78.42 z" style="stroke: none; stroke-width: 1; stroke-dasharray: none; stroke-linecap: butt; stroke-linejoin: miter; stroke-miterlimit: 10; fill: rgb(233,233,224); fill-rule: nonzero; opacity: 1;" transform=" matrix(1 0 0 1 0 0) " stroke-linecap="round"/>
	<path d="M 78.42 18.345 H 62.948 c -1.587 0 -2.873 -1.286 -2.873 -2.873 V 0 L 78.42 18.345 z" style="stroke: none; stroke-width: 1; stroke-dasharray: none; stroke-linecap: butt; stroke-linejoin: miter; stroke-miterlimit: 10; fill: rgb(217,215,202); fill-rule: nonzero; opacity: 1;" transform=" matrix(1 0 0 1 0 0) " stroke-linecap="round"/>
	<path d="M 33.505 82.319 h -5.947 c -2.391 0 -4.335 -1.945 -4.335 -4.336 v -10.93 c 0 -2.391 1.945 -4.335 4.335 -4.335 h 5.947 c 0.829 0 1.5 0.672 1.5 1.5 s -0.671 1.5 -1.5 1.5 h -5.947 c -0.736 0 -1.335 0.599 -1.335 1.335 v 10.93 c 0 0.736 0.599 1.336 1.335 1.336 h 5.947 c 0.829 0 1.5 0.672 1.5 1.5 S 34.333 82.319 33.505 82.319 z" style="stroke: none; stroke-width: 1; stroke-dasharray: none; stroke-linecap: butt; stroke-linejoin: miter; stroke-miterlimit: 10; fill: rgb(249,249,249); fill-rule: nonzero; opacity: 1;" transform=" matrix(1 0 0 1 0 0) " stroke-linecap="round"/>
	<path d="M 46.829 82.319 h -6.334 c -0.829 0 -1.5 -0.672 -1.5 -1.5 s 0.671 -1.5 1.5 -1.5 h 6.334 c 0.522 0 0.948 -0.426 0.948 -0.948 v -3.404 c 0 -0.522 -0.426 -0.948 -0.948 -0.948 h -3.886 c -2.177 0 -3.948 -1.771 -3.948 -3.948 v -3.403 c 0 -2.177 1.771 -3.948 3.948 -3.948 h 4.313 c 0.828 0 1.5 0.672 1.5 1.5 s -0.672 1.5 -1.5 1.5 h -4.313 c -0.523 0 -0.948 0.426 -0.948 0.948 v 3.403 c 0 0.522 0.425 0.948 0.948 0.948 h 3.886 c 2.177 0 3.948 1.771 3.948 3.948 v 3.404 C 50.777 80.548 49.006 82.319 46.829 82.319 z" style="stroke: none; stroke-width: 1; stroke-dasharray: none; stroke-linecap: butt; stroke-linejoin: miter; stroke-miterlimit: 10; fill: rgb(249,249,249); fill-rule: nonzero; opacity: 1;" transform=" matrix(1 0 0 1 0 0) " stroke-linecap="round"/>
	<path d="M 62.829 82.319 h -6.334 c -0.828 0 -1.5 -0.672 -1.5 -1.5 s 0.672 -1.5 1.5 -1.5 h 6.334 c 0.522 0 0.948 -0.426 0.948 -0.948 v -3.404 c 0 -0.522 -0.426 -0.948 -0.948 -0.948 h -3.886 c -2.177 0 -3.948 -1.771 -3.948 -3.948 v -3.403 c 0 -2.177 1.771 -3.948 3.948 -3.948 h 4.313 c 0.828 0 1.5 0.672 1.5 1.5 s -0.672 1.5 -1.5 1.5 h -4.313 c -0.522 0 -0.948 0.426 -0.948 0.948 v 3.403 c 0 0.522 0.426 0.948 0.948 0.948 h 3.886 c 2.177 0 3.948 1.771 3.948 3.948 v 3.404 C 66.777 80.548 65.006 82.319 62.829 82.319 z" style="stroke: none; stroke-width: 1; stroke-dasharray: none; stroke-linecap: butt; stroke-linejoin: miter; stroke-miterlimit: 10; fill: rgb(249,249,249); fill-rule: nonzero; opacity: 1;" transform=" matrix(1 0 0 1 0 0) " stroke-linecap="round"/>
</g>
</svg>