<svg xmlns="http://www.w3.org/2000/svg" xmlns:xlink="http://www.w3.org/1999/xlink" version="1.1" width="256" height="256" viewBox="0 0 256 256" xml:space="preserve">
<g style="stroke: none; stroke-width: 0; stroke-dasharray: none; stroke-linecap: butt; stroke-linejoin: miter; stroke-miterlimit: 10; fill: none; fill-rule: nonzero; opacity: 1;" transform="translate(1.4065934065934016 1.4065934065934016) scale(2.81 2.81)">
	<path d="M 80.022 0 H 9.978 C 4.476 0 0 4.476 0 9.978 v 54.583 v 15.462 C 0 85.524 4.476 90 9.978 90 h 70.044 C 85.524 90 90 85.524 90 80.022 V 62.646 V 9.978 C 90 4.476 85.524 0 80.022 0 z M 9.978 2 h 70.044 C 84.421 2 88 5.579 88 9.978 v 49.985 L 67.904 36.74 c -1.92 -2.218 -5.292 -2.47 -7.521 -0.559 L 33.485 59.255 c -0.692 0.593 -1.574 0.875 -2.48 0.792 c -0.907 -0.082 -1.723 -0.518 -2.296 -1.226 L 23.2 52.014 c -0.903 -1.115 -2.186 -1.81 -3.613 -1.954 c -1.43 -0.15 -2.822 0.276 -3.93 1.185 L 2 62.447 V 9.978 C 2 5.579 5.579 2 9.978 2 z M 88 80.022 C 88 84.421 84.421 88 80.022 88 H 9.978 C 5.579 88 2 84.421 2 80.022 V 65.033 l 14.925 -12.242 c 0.693 -0.569 1.566 -0.833 2.459 -0.742 c 0.893 0.091 1.696 0.525 2.261 1.223 l 5.509 6.808 c 0.917 1.132 2.22 1.828 3.67 1.96 c 1.453 0.128 2.858 -0.318 3.963 -1.267 l 26.899 -23.073 c 1.391 -1.197 3.503 -1.038 4.706 0.35 L 88 63.02 V 80.022 z" style="stroke: none; stroke-width: 1; stroke-dasharray: none; stroke-linecap: butt; stroke-linejoin: miter; stroke-miterlimit: 10; fill: rgb(0,0,0); fill-rule: nonzero; opacity: 1;" transform=" matrix(1 0 0 1 0 0) " stroke-linecap="round"/>
	<path d="M 25.55 35.672 c 6.065 0 11 -4.935 11 -11 s -4.935 -11 -11 -11 s -11 4.935 -11 11 S 19.484 35.672 25.55 35.672 z M 25.55 15.672 c 4.962 0 9 4.038 9 9 s -4.038 9 -9 9 s -9 -4.038 -9 -9 S 20.587 15.672 25.55 15.672 z" style="stroke: none; stroke-width: 1; stroke-dasharray: none; stroke-linecap: butt; stroke-linejoin: miter; stroke-miterlimit: 10; fill: rgb(0,0,0); fill-rule: nonzero; opacity: 1;" transform=" matrix(1 0 0 1 0 0) " stroke-linecap="round"/>
</g>
</svg>